<?xml version="1.0" encoding="UTF-8"?>
<svg width="17px" height="16px" viewBox="0 0 17 16" version="1.1" xmlns="http://www.w3.org/2000/svg" xmlns:xlink="http://www.w3.org/1999/xlink">
    <!-- Generator: Sketch 53.2 (72643) - https://sketchapp.com -->
    <title>cart</title>
    <desc>Created with Sketch.</desc>
    <g id="UI" stroke="none" stroke-width="1" fill="none" fill-rule="evenodd">
        <g id="Elements" transform="translate(-519.000000, -402.000000)">
            <g id="Stacked-Group" transform="translate(60.000000, 393.000000)">
                <g id="button-cart" transform="translate(444.000000, 0.000000)">
                    <g id="cart" transform="translate(15.000000, 8.000000)">
                        <rect id="Rectangle" x="0" y="0" width="18" height="18"></rect>
                        <circle id="Oval" fill="#FFFFFF" fill-rule="nonzero" cx="14.25" cy="15" r="1.5"></circle>
                        <circle id="Oval" fill="#FFFFFF" fill-rule="nonzero" cx="6.75" cy="15" r="1.5"></circle>
                        <path d="M15.7875,5.25 L4.5375,4.6275 L3.75,2.01 C3.64275456,1.6909718 3.33611427,1.4824564 3,1.5 L0.75,1.5 C0.335786438,1.5 5.07265313e-17,1.83578644 0,2.25 C-5.07265313e-17,2.66421356 0.335786438,3 0.75,3 L2.46,3 L3.1575,5.085 L5.0325,12.21 C5.15991821,12.5286188 5.48732749,12.7201224 5.8275,12.675 L15.8475,10.59 C16.223244,10.5407491 16.5032141,10.2189445 16.5,9.84 L16.5,6 C16.5005003,5.59999988 16.1870001,5.26999971 15.7875,5.25 Z" id="Path" fill="#FFFFFF" fill-rule="nonzero"></path>
                    </g>
                </g>
            </g>
        </g>
    </g>
</svg>