<?xml version="1.0" encoding="UTF-8"?>
<svg width="20px" height="20px" viewBox="0 0 20 20" version="1.1" xmlns="http://www.w3.org/2000/svg" xmlns:xlink="http://www.w3.org/1999/xlink">
    <!-- Generator: Sketch 53.2 (72643) - https://sketchapp.com -->
    <title>002-comparison</title>
    <desc>Created with Sketch.</desc>
    <g id="UI" stroke="none" stroke-width="1" fill="none" fill-rule="evenodd">
        <g id="Elements" transform="translate(-322.000000, -1360.000000)" fill="#0284C6" fill-rule="nonzero">
            <g id="Group-4" transform="translate(60.000000, 828.000000)">
                <g id="002-comparison" transform="translate(262.000000, 532.000000)">
                    <path d="M19.9164522,12.1853801 L16.5534503,6.57996101 L19.5715789,5.74159844 C19.882807,5.65516569 20.0649513,5.33282651 19.9785575,5.02163743 C19.8920858,4.71044834 19.5696686,4.52822612 19.2585575,4.61469786 L15.5068616,5.65680312 C15.5065887,5.65688109 15.5063158,5.65695906 15.5060429,5.65703704 L10.6042885,7.01859649 L10.6042885,0.584951267 C10.6042885,0.261988304 10.3424561,0.000155945419 10.0194932,0.000155945419 C9.69653021,0.000155945419 9.43469786,0.261988304 9.43469786,0.584951267 L9.43469786,7.34346979 L4.23224172,8.78853801 C4.23196881,8.78861598 4.23169591,8.78869396 4.231423,8.78873294 L0.467407407,9.83426901 C0.156179337,9.92070175 -0.0259649123,10.2430409 0.0604288499,10.55423 C0.132358674,10.8130604 0.367407407,10.9826511 0.623547758,10.9826511 C0.675360624,10.9826511 0.728070175,10.9757115 0.780389864,10.9611696 L3.12682261,10.3093957 L0.122534113,15.317154 C0.0680311891,15.4080312 0.0391812865,15.5120468 0.0391812865,15.6180117 C0.0391812865,18.0126706 1.98744639,19.9608577 4.38214425,19.9608577 C6.77692008,19.9608577 8.7251462,18.0126706 8.7251462,15.6180117 C8.7251462,15.5120468 8.69633528,15.4080312 8.64179337,15.317154 L5.27875244,9.71169591 L14.4014425,7.17769981 L11.397154,12.1853801 C11.3426511,12.2762573 11.3138012,12.3802729 11.3138012,12.4862378 C11.3138012,14.8809357 13.2620663,16.8291228 15.6567641,16.8291228 C16.8168031,16.8291228 17.9074074,16.3773879 18.7277583,15.557076 C19.5480702,14.7367641 19.9998051,13.6461988 19.9997271,12.4861598 C19.9998051,12.3802339 19.9709942,12.2762183 19.9164522,12.1853801 Z M4.38214425,18.791306 C2.83216374,18.791306 1.53875244,17.6740351 1.26339181,16.202768 L7.50089669,16.202768 C7.22557505,17.6740351 5.93216374,18.791306 4.38214425,18.791306 Z M7.10760234,15.0331774 L1.65676413,15.0331774 L4.38214425,10.4904873 L7.10760234,15.0331774 Z M15.6567641,7.35875244 L18.3822612,11.9014035 L12.931345,11.9014035 L15.6567641,7.35875244 Z M15.6568421,15.6595712 C14.1068616,15.6595712 12.8134113,14.5423002 12.5380117,13.0710331 L18.7756335,13.0710331 C18.5002339,14.5423002 17.2068616,15.6595712 15.6568421,15.6595712 Z" id="Shape"></path>
                </g>
            </g>
        </g>
    </g>
</svg>